Coordinates
version=1
nRows=13
nColumns=18
inDegrees=yes

Units are S.I. units (second, meters, Newtons, ...)
If the header above contains a line with 'inDegrees', this indicates whether rotational values are in degrees (yes) or radians (no).

endheader
time	ground_thorax_rot_x	ground_thorax_rot_y	ground_thorax_rot_z	ground_thorax_tx	ground_thorax_ty	ground_thorax_tz	clav_prot	clav_elev	scapula_abduction	scapula_elevation	scapula_upward_rot	scapula_winging	plane_elv	shoulder_elv	axial_rot	elbow_flexion	pro_sup
      2.22000000	      2.28043355	     -5.80271966	     -8.43884449	     -0.00559339	      0.00474943	      0.00180713	    -22.86772249	      1.78999148	    -12.65340059	     -0.37023422	     16.65759146	      2.98125156	    -14.60985751	     12.96470634	     53.71912315	      0.00000000	     34.32000000
      2.23000000	      2.48368527	     -6.47539690	     -8.35182292	     -0.00595709	      0.00461307	      0.00273394	    -22.56799638	      0.53200230	    -11.88960936	     -1.22212396	     16.34391655	      3.27796419	    -16.11303632	     14.04900300	     53.94986433	      0.00000000	     34.32000000
      2.24000000	      2.72429641	     -6.80593675	     -8.30932952	     -0.00628864	      0.00447683	      0.00341935	    -22.61042801	     -0.29561903	    -11.79511059	     -1.80937161	     16.18214392	      3.48841757	    -16.42920432	     14.61996395	     54.12867007	      0.00000000	     34.32000000
      2.25000000	      2.97233939	     -7.01698580	     -8.11523087	     -0.00652212	      0.00443252	      0.00400736	    -22.69011458	     -0.52963457	    -11.83033080	     -2.00382620	     16.23077800	      3.52722459	    -16.52044654	     14.82663614	     54.15422979	      0.00000000	     34.32000000
      2.26000000	      3.15775943	     -7.05256845	     -8.05092020	     -0.00657271	      0.00448954	      0.00444735	    -22.70993102	     -0.66897715	    -11.82428087	     -2.10933845	     16.22612438	      3.55993058	    -16.62680913	     15.06868485	     54.16276558	      0.00000000	     34.32000000
      2.27000000	      3.21251715	     -6.80367915	     -7.85554620	     -0.00676493	      0.00464164	      0.00455982	    -22.46413035	     -0.94002752	    -11.70966669	     -2.13353855	     15.57884844	      3.79244162	    -17.13138765	     15.80389452	     54.11211793	      0.00000000	     34.32000000
      2.28000000	      3.36258341	     -6.53460089	     -7.90343588	     -0.00671722	      0.00457265	      0.00475306	    -22.11231145	     -1.40448116	    -11.38819480	     -2.28022578	     14.86547678	      4.08192172	    -17.50295307	     16.64952678	     54.02022511	      0.00000000	     34.32000000
      2.29000000	      3.48896704	     -6.28276142	     -8.03073889	     -0.00646470	      0.00436713	      0.00474554	    -21.58500816	     -1.97476151	    -10.74736244	     -2.48792113	     14.11841794	      4.39387994	    -17.61931560	     17.78536885	     51.63944242	      0.00000000	     34.32000000
      2.30000000	      3.60498384	     -5.64081073	     -8.08826251	     -0.00628752	      0.00422667	      0.00457080	    -21.42808926	     -2.33767134	    -10.61179482	     -2.64804634	     13.71002528	      4.58410077	    -18.13134494	     18.39982245	     51.37923509	      0.00000000	     34.32000000
      2.31000000	      3.68091939	     -5.22711879	     -8.20103438	     -0.00600907	      0.00407801	      0.00434323	    -21.33416787	     -2.38591145	    -10.43544119	     -2.67888374	     13.70779266	      4.59046174	    -18.16102467	     18.48903325	     51.33197097	      0.00000000	     34.32000000
      2.32000000	      3.59415750	     -4.94575254	     -8.23275611	     -0.00588161	      0.00413512	      0.00389328	    -21.26665704	     -2.39977073	    -10.32511558	     -2.68040881	     13.68818658	      4.59434812	    -18.16669777	     18.45766257	     51.26524738	      0.00000000	     34.32000000
      2.33000000	      3.56434138	     -4.87927903	     -8.20336859	     -0.00585736	      0.00429945	      0.00366025	    -21.25333448	     -2.41608511	    -10.28923538	     -2.69570443	     13.70181319	      4.59391069	    -18.14942552	     18.44365586	     51.25420682	      0.00000000	     34.32000000
      2.34000000	      3.54921118	     -4.88074997	     -8.24078797	     -0.00585539	      0.00409754	      0.00364785	    -21.25091082	     -2.40869924	    -10.29443345	     -2.68661854	     13.68930259	      4.59517291	    -18.16085812	     18.47423033	     51.24180271	      0.00000000	     34.32000000
